# MagicaVoxel @ Ephtracy

# group
g historical chair_3_legs

# material
mtllib historical chair_3_legs.mtl
usemtl palette

# normals
vn -1 0 0
vn 1 0 0
vn 0 0 1
vn 0 0 -1
vn 0 -1 0
vn 0 1 0

# texcoords
vt 0.197266 0.5
vt 0.224609 0.5

# verts
v -15 8 15
v -15 8 11
v -15 8 -11
v -15 8 -15
v -15 9 15
v -15 9 11
v -15 9 -11
v -15 9 -15
v -14 0 14
v -14 0 12
v -14 0 -12
v -14 0 -14
v -14 8 14
v -14 8 12
v -14 8 -12
v -14 8 -14
v -14 9 14
v -14 9 12
v -14 9 -12
v -14 9 -14
v -14 24 14
v -14 24 12
v -14 24 -12
v -14 24 -14
v -12 20 15
v -12 20 14
v -12 20 12
v -12 20 -12
v -12 20 -14
v -12 20 -15
v -12 21 15
v -12 21 14
v -12 21 12
v -12 21 -12
v -12 21 -14
v -12 21 -15
v 10 20 15
v 10 20 14
v 10 20 12
v 10 20 -12
v 10 20 -14
v 10 20 -15
v 10 21 15
v 10 21 -15
v 11 8 15
v 11 8 11
v 11 8 -11
v 11 8 -15
v 11 9 15
v 11 9 11
v 11 9 -11
v 11 9 -15
v 12 0 14
v 12 0 12
v 12 0 -12
v 12 0 -14
v 12 8 14
v 12 8 12
v 12 8 -12
v 12 8 -14
v 12 9 14
v 12 9 12
v 12 9 -12
v 12 9 -14
v 12 19 14
v 12 19 12
v 12 19 -12
v 12 19 -14
v 12 21 14
v 12 21 12
v 12 21 -12
v 12 21 -14
v 12 24 14
v 12 24 12
v 12 24 -12
v 12 24 -14
v -12 0 14
v -12 0 12
v -12 0 -12
v -12 0 -14
v -12 8 14
v -12 8 12
v -12 8 -12
v -12 8 -14
v -12 9 14
v -12 9 12
v -12 9 -12
v -12 9 -14
v -12 19 14
v -12 19 12
v -12 19 -12
v -12 19 -14
v -12 21 14
v -12 21 12
v -12 21 -12
v -12 21 -14
v -12 24 14
v -12 24 12
v -12 24 -12
v -12 24 -14
v -11 8 15
v -11 8 11
v -11 8 -11
v -11 8 -15
v -11 9 15
v -11 9 11
v -11 9 -11
v -11 9 -15
v -10 20 15
v -10 20 14
v -10 20 12
v -10 20 -12
v -10 20 -14
v -10 20 -15
v -10 21 15
v -10 21 -15
v 12 20 15
v 12 20 14
v 12 20 12
v 12 20 -12
v 12 20 -14
v 12 20 -15
v 12 21 15
v 12 21 14
v 12 21 12
v 12 21 -12
v 12 21 -14
v 12 21 -15
v 14 0 14
v 14 0 12
v 14 0 -12
v 14 0 -14
v 14 8 14
v 14 8 12
v 14 8 -12
v 14 8 -14
v 14 9 14
v 14 9 12
v 14 9 -12
v 14 9 -14
v 14 24 14
v 14 24 12
v 14 24 -12
v 14 24 -14
v 15 8 15
v 15 8 11
v 15 8 -11
v 15 8 -15
v 15 9 15
v 15 9 11
v 15 9 -11
v 15 9 -15
v -15 8 15
v -15 9 15
v -12 20 15
v -12 21 15
v -11 8 15
v -11 9 15
v -10 20 15
v -10 21 15
v 10 20 15
v 10 21 15
v 11 8 15
v 11 9 15
v 12 20 15
v 12 21 15
v 15 8 15
v 15 9 15
v -14 0 14
v -14 8 14
v -14 9 14
v -14 24 14
v -12 0 14
v -12 8 14
v -12 9 14
v -12 19 14
v -12 20 14
v -12 21 14
v -12 24 14
v -10 20 14
v 10 20 14
v 12 0 14
v 12 8 14
v 12 9 14
v 12 19 14
v 12 20 14
v 12 21 14
v 12 24 14
v 14 0 14
v 14 8 14
v 14 9 14
v 14 24 14
v -15 8 -11
v -15 9 -11
v -11 8 -11
v -11 9 -11
v 11 8 -11
v 11 9 -11
v 15 8 -11
v 15 9 -11
v -14 0 -12
v -14 8 -12
v -14 9 -12
v -14 24 -12
v -12 0 -12
v -12 8 -12
v -12 9 -12
v -12 19 -12
v -12 20 -12
v -12 21 -12
v -12 24 -12
v -10 20 -12
v 10 20 -12
v 12 0 -12
v 12 8 -12
v 12 9 -12
v 12 19 -12
v 12 20 -12
v 12 21 -12
v 12 24 -12
v 14 0 -12
v 14 8 -12
v 14 9 -12
v 14 24 -12
v -14 0 12
v -14 8 12
v -14 9 12
v -14 24 12
v -12 0 12
v -12 8 12
v -12 9 12
v -12 19 12
v -12 20 12
v -12 21 12
v -12 24 12
v -10 20 12
v 10 20 12
v 12 0 12
v 12 8 12
v 12 9 12
v 12 19 12
v 12 20 12
v 12 21 12
v 12 24 12
v 14 0 12
v 14 8 12
v 14 9 12
v 14 24 12
v -15 8 11
v -15 9 11
v -11 8 11
v -11 9 11
v 11 8 11
v 11 9 11
v 15 8 11
v 15 9 11
v -14 0 -14
v -14 8 -14
v -14 9 -14
v -14 24 -14
v -12 0 -14
v -12 8 -14
v -12 9 -14
v -12 19 -14
v -12 20 -14
v -12 21 -14
v -12 24 -14
v -10 20 -14
v 10 20 -14
v 12 0 -14
v 12 8 -14
v 12 9 -14
v 12 19 -14
v 12 20 -14
v 12 21 -14
v 12 24 -14
v 14 0 -14
v 14 8 -14
v 14 9 -14
v 14 24 -14
v -15 8 -15
v -15 9 -15
v -12 20 -15
v -12 21 -15
v -11 8 -15
v -11 9 -15
v -10 20 -15
v -10 21 -15
v 10 20 -15
v 10 21 -15
v 11 8 -15
v 11 9 -15
v 12 20 -15
v 12 21 -15
v 15 8 -15
v 15 9 -15
v -14 0 14
v -12 0 14
v 12 0 14
v 14 0 14
v -14 0 12
v -12 0 12
v 12 0 12
v 14 0 12
v -14 0 -12
v -12 0 -12
v 12 0 -12
v 14 0 -12
v -14 0 -14
v -12 0 -14
v 12 0 -14
v 14 0 -14
v -15 8 15
v -11 8 15
v 11 8 15
v 15 8 15
v -14 8 14
v -12 8 14
v 12 8 14
v 14 8 14
v -14 8 12
v -12 8 12
v 12 8 12
v 14 8 12
v -15 8 11
v -11 8 11
v 11 8 11
v 15 8 11
v -15 8 -11
v -11 8 -11
v 11 8 -11
v 15 8 -11
v -14 8 -12
v -12 8 -12
v 12 8 -12
v 14 8 -12
v -14 8 -14
v -12 8 -14
v 12 8 -14
v 14 8 -14
v -15 8 -15
v -11 8 -15
v 11 8 -15
v 15 8 -15
v -12 19 14
v 12 19 14
v -12 19 12
v 12 19 12
v -12 19 -12
v 12 19 -12
v -12 19 -14
v 12 19 -14
v -12 20 15
v -10 20 15
v 10 20 15
v 12 20 15
v -12 20 14
v -10 20 14
v 10 20 14
v 12 20 14
v -12 20 12
v -10 20 12
v 10 20 12
v 12 20 12
v -12 20 -12
v -10 20 -12
v 10 20 -12
v 12 20 -12
v -12 20 -14
v -10 20 -14
v 10 20 -14
v 12 20 -14
v -12 20 -15
v -10 20 -15
v 10 20 -15
v 12 20 -15
v -15 9 15
v -11 9 15
v 11 9 15
v 15 9 15
v -14 9 14
v -12 9 14
v 12 9 14
v 14 9 14
v -14 9 12
v -12 9 12
v 12 9 12
v 14 9 12
v -15 9 11
v -11 9 11
v 11 9 11
v 15 9 11
v -15 9 -11
v -11 9 -11
v 11 9 -11
v 15 9 -11
v -14 9 -12
v -12 9 -12
v 12 9 -12
v 14 9 -12
v -14 9 -14
v -12 9 -14
v 12 9 -14
v 14 9 -14
v -15 9 -15
v -11 9 -15
v 11 9 -15
v 15 9 -15
v -10 20 14
v 10 20 14
v -10 20 12
v 10 20 12
v -10 20 -12
v 10 20 -12
v -10 20 -14
v 10 20 -14
v -12 21 15
v -10 21 15
v 10 21 15
v 12 21 15
v -12 21 14
v 12 21 14
v -12 21 12
v 12 21 12
v -12 21 -12
v 12 21 -12
v -12 21 -14
v 12 21 -14
v -12 21 -15
v -10 21 -15
v 10 21 -15
v 12 21 -15
v -14 24 14
v -12 24 14
v 12 24 14
v 14 24 14
v -14 24 12
v -12 24 12
v 12 24 12
v 14 24 12
v -14 24 -12
v -12 24 -12
v 12 24 -12
v 14 24 -12
v -14 24 -14
v -12 24 -14
v 12 24 -14
v 14 24 -14

# faces
f 5/1/1 2/1/1 1/1/1
f 6/1/1 2/1/1 5/1/1
f 7/1/1 4/1/1 3/1/1
f 8/1/1 4/1/1 7/1/1
f 13/2/1 10/2/1 9/2/1
f 14/2/1 10/2/1 13/2/1
f 15/2/1 12/2/1 11/2/1
f 16/2/1 12/2/1 15/2/1
f 21/2/1 18/2/1 17/2/1
f 22/2/1 18/2/1 21/2/1
f 23/2/1 20/2/1 19/2/1
f 24/2/1 20/2/1 23/2/1
f 31/1/1 26/1/1 25/1/1
f 32/1/1 26/1/1 31/1/1
f 33/1/1 28/1/1 27/1/1
f 34/1/1 28/1/1 33/1/1
f 35/1/1 30/1/1 29/1/1
f 36/1/1 30/1/1 35/1/1
f 43/1/1 38/1/1 37/1/1
f 43/1/1 42/1/1 41/1/1
f 43/1/1 41/1/1 40/1/1
f 43/1/1 40/1/1 39/1/1
f 43/1/1 39/1/1 38/1/1
f 44/1/1 42/1/1 43/1/1
f 49/1/1 46/1/1 45/1/1
f 50/1/1 46/1/1 49/1/1
f 51/1/1 48/1/1 47/1/1
f 52/1/1 48/1/1 51/1/1
f 57/2/1 54/2/1 53/2/1
f 58/2/1 54/2/1 57/2/1
f 59/2/1 56/2/1 55/2/1
f 60/2/1 56/2/1 59/2/1
f 65/2/1 62/2/1 61/2/1
f 66/2/1 62/2/1 65/2/1
f 67/2/1 64/2/1 63/2/1
f 68/2/1 64/2/1 67/2/1
f 73/2/1 70/2/1 69/2/1
f 74/2/1 70/2/1 73/2/1
f 75/2/1 72/2/1 71/2/1
f 76/2/1 72/2/1 75/2/1
f 77/2/2 78/2/2 81/2/2
f 81/2/2 78/2/2 82/2/2
f 79/2/2 80/2/2 83/2/2
f 83/2/2 80/2/2 84/2/2
f 85/2/2 86/2/2 89/2/2
f 89/2/2 86/2/2 90/2/2
f 87/2/2 88/2/2 91/2/2
f 91/2/2 88/2/2 92/2/2
f 93/2/2 94/2/2 97/2/2
f 97/2/2 94/2/2 98/2/2
f 95/2/2 96/2/2 99/2/2
f 99/2/2 96/2/2 100/2/2
f 101/1/2 102/1/2 105/1/2
f 105/1/2 102/1/2 106/1/2
f 103/1/2 104/1/2 107/1/2
f 107/1/2 104/1/2 108/1/2
f 109/1/2 110/1/2 115/1/2
f 113/1/2 114/1/2 115/1/2
f 112/1/2 113/1/2 115/1/2
f 111/1/2 112/1/2 115/1/2
f 110/1/2 111/1/2 115/1/2
f 115/1/2 114/1/2 116/1/2
f 117/1/2 118/1/2 123/1/2
f 123/1/2 118/1/2 124/1/2
f 119/1/2 120/1/2 125/1/2
f 125/1/2 120/1/2 126/1/2
f 121/1/2 122/1/2 127/1/2
f 127/1/2 122/1/2 128/1/2
f 129/2/2 130/2/2 133/2/2
f 133/2/2 130/2/2 134/2/2
f 131/2/2 132/2/2 135/2/2
f 135/2/2 132/2/2 136/2/2
f 137/2/2 138/2/2 141/2/2
f 141/2/2 138/2/2 142/2/2
f 139/2/2 140/2/2 143/2/2
f 143/2/2 140/2/2 144/2/2
f 145/1/2 146/1/2 149/1/2
f 149/1/2 146/1/2 150/1/2
f 147/1/2 148/1/2 151/1/2
f 151/1/2 148/1/2 152/1/2
f 157/1/3 154/1/3 153/1/3
f 158/1/3 154/1/3 157/1/3
f 159/1/3 156/1/3 155/1/3
f 160/1/3 156/1/3 159/1/3
f 165/1/3 162/1/3 161/1/3
f 166/1/3 162/1/3 165/1/3
f 167/1/3 164/1/3 163/1/3
f 168/1/3 164/1/3 167/1/3
f 173/2/3 170/2/3 169/2/3
f 174/2/3 170/2/3 173/2/3
f 175/2/3 172/2/3 171/2/3
f 176/2/3 172/2/3 175/2/3
f 177/2/3 172/2/3 176/2/3
f 178/2/3 172/2/3 177/2/3
f 179/2/3 172/2/3 178/2/3
f 180/1/3 177/1/3 176/1/3
f 181/1/3 180/1/3 176/1/3
f 185/1/3 181/1/3 176/1/3
f 186/1/3 181/1/3 185/1/3
f 189/2/3 183/2/3 182/2/3
f 190/2/3 183/2/3 189/2/3
f 191/2/3 186/2/3 185/2/3
f 191/2/3 188/2/3 187/2/3
f 191/2/3 185/2/3 184/2/3
f 191/2/3 187/2/3 186/2/3
f 192/2/3 188/2/3 191/2/3
f 195/1/3 194/1/3 193/1/3
f 196/1/3 194/1/3 195/1/3
f 199/1/3 198/1/3 197/1/3
f 200/1/3 198/1/3 199/1/3
f 205/2/3 202/2/3 201/2/3
f 206/2/3 202/2/3 205/2/3
f 207/2/3 204/2/3 203/2/3
f 208/2/3 204/2/3 207/2/3
f 209/2/3 204/2/3 208/2/3
f 210/2/3 204/2/3 209/2/3
f 211/2/3 204/2/3 210/2/3
f 212/1/3 209/1/3 208/1/3
f 213/1/3 212/1/3 208/1/3
f 217/1/3 213/1/3 208/1/3
f 218/1/3 213/1/3 217/1/3
f 221/2/3 215/2/3 214/2/3
f 222/2/3 215/2/3 221/2/3
f 223/2/3 218/2/3 217/2/3
f 223/2/3 220/2/3 219/2/3
f 223/2/3 217/2/3 216/2/3
f 223/2/3 219/2/3 218/2/3
f 224/2/3 220/2/3 223/2/3
f 225/2/4 226/2/4 229/2/4
f 229/2/4 226/2/4 230/2/4
f 227/2/4 228/2/4 231/2/4
f 231/2/4 228/2/4 232/2/4
f 232/2/4 228/2/4 233/2/4
f 233/2/4 228/2/4 234/2/4
f 234/2/4 228/2/4 235/2/4
f 232/1/4 233/1/4 236/1/4
f 232/1/4 236/1/4 237/1/4
f 232/1/4 237/1/4 241/1/4
f 241/1/4 237/1/4 242/1/4
f 238/2/4 239/2/4 245/2/4
f 245/2/4 239/2/4 246/2/4
f 241/2/4 242/2/4 247/2/4
f 243/2/4 244/2/4 247/2/4
f 240/2/4 241/2/4 247/2/4
f 242/2/4 243/2/4 247/2/4
f 247/2/4 244/2/4 248/2/4
f 249/1/4 250/1/4 251/1/4
f 251/1/4 250/1/4 252/1/4
f 253/1/4 254/1/4 255/1/4
f 255/1/4 254/1/4 256/1/4
f 257/2/4 258/2/4 261/2/4
f 261/2/4 258/2/4 262/2/4
f 259/2/4 260/2/4 263/2/4
f 263/2/4 260/2/4 264/2/4
f 264/2/4 260/2/4 265/2/4
f 265/2/4 260/2/4 266/2/4
f 266/2/4 260/2/4 267/2/4
f 264/1/4 265/1/4 268/1/4
f 264/1/4 268/1/4 269/1/4
f 264/1/4 269/1/4 273/1/4
f 273/1/4 269/1/4 274/1/4
f 270/2/4 271/2/4 277/2/4
f 277/2/4 271/2/4 278/2/4
f 273/2/4 274/2/4 279/2/4
f 275/2/4 276/2/4 279/2/4
f 272/2/4 273/2/4 279/2/4
f 274/2/4 275/2/4 279/2/4
f 279/2/4 276/2/4 280/2/4
f 281/1/4 282/1/4 285/1/4
f 285/1/4 282/1/4 286/1/4
f 283/1/4 284/1/4 287/1/4
f 287/1/4 284/1/4 288/1/4
f 289/1/4 290/1/4 293/1/4
f 293/1/4 290/1/4 294/1/4
f 291/1/4 292/1/4 295/1/4
f 295/1/4 292/1/4 296/1/4
f 301/2/5 298/2/5 297/2/5
f 302/2/5 298/2/5 301/2/5
f 303/2/5 300/2/5 299/2/5
f 304/2/5 300/2/5 303/2/5
f 309/2/5 306/2/5 305/2/5
f 310/2/5 306/2/5 309/2/5
f 311/2/5 308/2/5 307/2/5
f 312/2/5 308/2/5 311/2/5
f 317/1/5 314/1/5 313/1/5
f 318/1/5 314/1/5 317/1/5
f 319/1/5 316/1/5 315/1/5
f 320/1/5 316/1/5 319/1/5
f 321/1/5 317/1/5 313/1/5
f 322/1/5 314/1/5 318/1/5
f 323/1/5 319/1/5 315/1/5
f 324/1/5 316/1/5 320/1/5
f 325/1/5 321/1/5 313/1/5
f 325/1/5 322/1/5 321/1/5
f 326/1/5 314/1/5 322/1/5
f 326/1/5 322/1/5 325/1/5
f 327/1/5 324/1/5 323/1/5
f 327/1/5 323/1/5 315/1/5
f 328/1/5 316/1/5 324/1/5
f 328/1/5 324/1/5 327/1/5
f 333/1/5 330/1/5 329/1/5
f 334/1/5 330/1/5 333/1/5
f 335/1/5 332/1/5 331/1/5
f 336/1/5 332/1/5 335/1/5
f 337/1/5 333/1/5 329/1/5
f 338/1/5 330/1/5 334/1/5
f 339/1/5 335/1/5 331/1/5
f 340/1/5 332/1/5 336/1/5
f 341/1/5 337/1/5 329/1/5
f 341/1/5 338/1/5 337/1/5
f 342/1/5 330/1/5 338/1/5
f 342/1/5 338/1/5 341/1/5
f 343/1/5 340/1/5 339/1/5
f 343/1/5 339/1/5 331/1/5
f 344/1/5 332/1/5 340/1/5
f 344/1/5 340/1/5 343/1/5
f 347/1/5 346/1/5 345/1/5
f 348/1/5 346/1/5 347/1/5
f 351/1/5 350/1/5 349/1/5
f 352/1/5 350/1/5 351/1/5
f 357/1/5 354/1/5 353/1/5
f 358/1/5 354/1/5 357/1/5
f 359/1/5 356/1/5 355/1/5
f 360/1/5 356/1/5 359/1/5
f 365/1/5 362/1/5 361/1/5
f 366/1/5 362/1/5 365/1/5
f 367/1/5 364/1/5 363/1/5
f 368/1/5 364/1/5 367/1/5
f 373/1/5 370/1/5 369/1/5
f 374/1/5 370/1/5 373/1/5
f 375/1/5 372/1/5 371/1/5
f 376/1/5 372/1/5 375/1/5
f 377/1/6 378/1/6 381/1/6
f 381/1/6 378/1/6 382/1/6
f 379/1/6 380/1/6 383/1/6
f 383/1/6 380/1/6 384/1/6
f 377/1/6 381/1/6 385/1/6
f 382/1/6 378/1/6 386/1/6
f 379/1/6 383/1/6 387/1/6
f 384/1/6 380/1/6 388/1/6
f 377/1/6 385/1/6 389/1/6
f 385/1/6 386/1/6 389/1/6
f 386/1/6 378/1/6 390/1/6
f 389/1/6 386/1/6 390/1/6
f 387/1/6 388/1/6 391/1/6
f 379/1/6 387/1/6 391/1/6
f 388/1/6 380/1/6 392/1/6
f 391/1/6 388/1/6 392/1/6
f 393/1/6 394/1/6 397/1/6
f 397/1/6 394/1/6 398/1/6
f 395/1/6 396/1/6 399/1/6
f 399/1/6 396/1/6 400/1/6
f 393/1/6 397/1/6 401/1/6
f 398/1/6 394/1/6 402/1/6
f 395/1/6 399/1/6 403/1/6
f 400/1/6 396/1/6 404/1/6
f 393/1/6 401/1/6 405/1/6
f 401/1/6 402/1/6 405/1/6
f 402/1/6 394/1/6 406/1/6
f 405/1/6 402/1/6 406/1/6
f 403/1/6 404/1/6 407/1/6
f 395/1/6 403/1/6 407/1/6
f 404/1/6 396/1/6 408/1/6
f 407/1/6 404/1/6 408/1/6
f 409/1/6 410/1/6 411/1/6
f 411/1/6 410/1/6 412/1/6
f 413/1/6 414/1/6 415/1/6
f 415/1/6 414/1/6 416/1/6
f 417/1/6 418/1/6 421/1/6
f 419/1/6 420/1/6 422/1/6
f 421/1/6 418/1/6 423/1/6
f 419/1/6 422/1/6 424/1/6
f 423/1/6 418/1/6 425/1/6
f 419/1/6 424/1/6 426/1/6
f 425/1/6 418/1/6 427/1/6
f 419/1/6 426/1/6 428/1/6
f 427/1/6 418/1/6 429/1/6
f 429/1/6 418/1/6 430/1/6
f 419/1/6 428/1/6 431/1/6
f 431/1/6 428/1/6 432/1/6
f 433/2/6 434/2/6 437/2/6
f 437/2/6 434/2/6 438/2/6
f 435/2/6 436/2/6 439/2/6
f 439/2/6 436/2/6 440/2/6
f 441/2/6 442/2/6 445/2/6
f 445/2/6 442/2/6 446/2/6
f 443/2/6 444/2/6 447/2/6
f 447/2/6 444/2/6 448/2/6
