# MagicaVoxel @ Ephtracy

# group
g historical chair_1_seat

# material
mtllib historical chair_1_seat.mtl
usemtl palette

# normals
vn -1 0 0
vn 1 0 0
vn 0 0 1
vn 0 0 -1
vn 0 -1 0
vn 0 1 0

# texcoords
vt 0.220703 0.5
vt 0.224609 0.5

# verts
v -15 24 14
v -15 24 -15
v -15 25 14
v -15 25 -15
v 3 24 -14
v 3 24 -15
v 3 25 -14
v 3 25 -15
v -2 24 -14
v -2 24 -15
v -2 25 -14
v -2 25 -15
v 15 24 14
v 15 24 -15
v 15 25 14
v 15 25 -15
v -15 24 14
v -15 25 14
v 15 24 14
v 15 25 14
v -2 24 -14
v -2 25 -14
v 3 24 -14
v 3 25 -14
v -15 24 -15
v -15 25 -15
v -2 24 -15
v -2 25 -15
v 3 24 -15
v 3 25 -15
v 15 24 -15
v 15 25 -15
v -15 24 14
v 15 24 14
v -2 24 -13
v 3 24 -13
v -2 24 -14
v 3 24 -14
v -15 24 -15
v -2 24 -15
v 3 24 -15
v 15 24 -15
v -15 25 14
v 15 25 14
v -2 25 -13
v 3 25 -13
v -2 25 -14
v 3 25 -14
v -15 25 -15
v -2 25 -15
v 3 25 -15
v 15 25 -15

# faces
f 3/2/1 2/2/1 1/2/1
f 4/2/1 2/2/1 3/2/1
f 7/2/1 6/2/1 5/2/1
f 8/2/1 6/2/1 7/2/1
f 9/2/2 10/2/2 11/2/2
f 11/2/2 10/2/2 12/2/2
f 13/2/2 14/2/2 15/2/2
f 15/2/2 14/2/2 16/2/2
f 19/2/3 18/2/3 17/2/3
f 20/2/3 18/2/3 19/2/3
f 21/1/4 22/1/4 23/1/4
f 23/1/4 22/1/4 24/1/4
f 25/2/4 26/2/4 27/2/4
f 27/2/4 26/2/4 28/2/4
f 29/2/4 30/2/4 31/2/4
f 31/2/4 30/2/4 32/2/4
f 35/2/5 34/2/5 33/2/5
f 36/2/5 34/2/5 35/2/5
f 37/2/5 35/2/5 33/2/5
f 37/1/5 36/1/5 35/1/5
f 38/2/5 34/2/5 36/2/5
f 38/1/5 36/1/5 37/1/5
f 39/2/5 37/2/5 33/2/5
f 40/2/5 37/2/5 39/2/5
f 41/2/5 34/2/5 38/2/5
f 42/2/5 34/2/5 41/2/5
f 43/2/6 44/2/6 45/2/6
f 45/2/6 44/2/6 46/2/6
f 43/2/6 45/2/6 47/2/6
f 45/1/6 46/1/6 47/1/6
f 46/2/6 44/2/6 48/2/6
f 47/1/6 46/1/6 48/1/6
f 43/2/6 47/2/6 49/2/6
f 49/2/6 47/2/6 50/2/6
f 48/2/6 44/2/6 51/2/6
f 51/2/6 44/2/6 52/2/6
