# MagicaVoxel @ Ephtracy

# group
g historical chair_3_support

# material
mtllib historical chair_3_support.mtl
usemtl palette

# normals
vn -1 0 0
vn 1 0 0
vn 0 0 1
vn 0 0 -1
vn 0 -1 0
vn 0 1 0

# texcoords
vt 0.197266 0.5
vt 0.224609 0.5

# verts
v -14 26 14
v -14 26 12
v -14 26 -12
v -14 26 -14
v -14 45 12
v -14 45 -12
v -14 47 12
v -14 47 -12
v -14 49 12
v -14 49 -12
v -14 51 12
v -14 51 -12
v -14 53 12
v -14 53 -12
v -14 55 12
v -14 55 -12
v -14 57 12
v -14 57 -12
v -14 59 12
v -14 59 -12
v -14 60 14
v -14 60 12
v -14 60 -12
v -14 60 -14
v -12 26 14
v -12 26 12
v -12 26 -12
v -12 26 -14
v -12 45 12
v -12 45 -12
v -12 47 12
v -12 47 -12
v -12 49 12
v -12 49 -12
v -12 51 12
v -12 51 -12
v -12 53 12
v -12 53 -12
v -12 55 12
v -12 55 -12
v -12 57 12
v -12 57 -12
v -12 59 12
v -12 59 -12
v -12 60 14
v -12 60 12
v -12 60 -12
v -12 60 -14
v -14 26 14
v -14 60 14
v -12 26 14
v -12 60 14
v -14 26 -12
v -14 45 -12
v -14 47 -12
v -14 49 -12
v -14 51 -12
v -14 53 -12
v -14 55 -12
v -14 57 -12
v -14 59 -12
v -14 60 -12
v -12 26 -12
v -12 45 -12
v -12 47 -12
v -12 49 -12
v -12 51 -12
v -12 53 -12
v -12 55 -12
v -12 57 -12
v -12 59 -12
v -12 60 -12
v -14 26 12
v -14 45 12
v -14 47 12
v -14 49 12
v -14 51 12
v -14 53 12
v -14 55 12
v -14 57 12
v -14 59 12
v -14 60 12
v -12 26 12
v -12 45 12
v -12 47 12
v -12 49 12
v -12 51 12
v -12 53 12
v -12 55 12
v -12 57 12
v -12 59 12
v -12 60 12
v -14 26 -14
v -14 60 -14
v -12 26 -14
v -12 60 -14
v -14 26 14
v -12 26 14
v -14 26 12
v -12 26 12
v -14 26 -12
v -12 26 -12
v -14 26 -14
v -12 26 -14
v -14 45 12
v -12 45 12
v -14 45 -12
v -12 45 -12
v -14 49 12
v -12 49 12
v -14 49 -12
v -12 49 -12
v -14 53 12
v -12 53 12
v -14 53 -12
v -12 53 -12
v -14 57 12
v -12 57 12
v -14 57 -12
v -12 57 -12
v -14 47 12
v -12 47 12
v -14 47 -12
v -12 47 -12
v -14 51 12
v -12 51 12
v -14 51 -12
v -12 51 -12
v -14 55 12
v -12 55 12
v -14 55 -12
v -12 55 -12
v -14 59 12
v -12 59 12
v -14 59 -12
v -12 59 -12
v -14 60 14
v -12 60 14
v -14 60 12
v -12 60 12
v -14 60 -12
v -12 60 -12
v -14 60 -14
v -12 60 -14

# faces
f 5/2/1 2/2/1 1/2/1
f 6/2/1 4/2/1 3/2/1
f 7/2/1 5/2/1 1/2/1
f 7/1/1 6/1/1 5/1/1
f 8/2/1 4/2/1 6/2/1
f 8/1/1 6/1/1 7/1/1
f 9/2/1 7/2/1 1/2/1
f 10/2/1 4/2/1 8/2/1
f 11/2/1 9/2/1 1/2/1
f 11/1/1 10/1/1 9/1/1
f 12/2/1 4/2/1 10/2/1
f 12/1/1 10/1/1 11/1/1
f 13/2/1 11/2/1 1/2/1
f 14/2/1 4/2/1 12/2/1
f 15/2/1 13/2/1 1/2/1
f 15/1/1 14/1/1 13/1/1
f 16/2/1 4/2/1 14/2/1
f 16/1/1 14/1/1 15/1/1
f 17/2/1 15/2/1 1/2/1
f 18/2/1 4/2/1 16/2/1
f 19/2/1 17/2/1 1/2/1
f 19/1/1 18/1/1 17/1/1
f 20/2/1 4/2/1 18/2/1
f 20/1/1 18/1/1 19/1/1
f 21/2/1 19/2/1 1/2/1
f 22/2/1 19/2/1 21/2/1
f 23/2/1 4/2/1 20/2/1
f 24/2/1 4/2/1 23/2/1
f 25/2/2 26/2/2 29/2/2
f 27/2/2 28/2/2 30/2/2
f 25/2/2 29/2/2 31/2/2
f 29/1/2 30/1/2 31/1/2
f 30/2/2 28/2/2 32/2/2
f 31/1/2 30/1/2 32/1/2
f 25/2/2 31/2/2 33/2/2
f 32/2/2 28/2/2 34/2/2
f 25/2/2 33/2/2 35/2/2
f 33/1/2 34/1/2 35/1/2
f 34/2/2 28/2/2 36/2/2
f 35/1/2 34/1/2 36/1/2
f 25/2/2 35/2/2 37/2/2
f 36/2/2 28/2/2 38/2/2
f 25/2/2 37/2/2 39/2/2
f 37/1/2 38/1/2 39/1/2
f 38/2/2 28/2/2 40/2/2
f 39/1/2 38/1/2 40/1/2
f 25/2/2 39/2/2 41/2/2
f 40/2/2 28/2/2 42/2/2
f 25/2/2 41/2/2 43/2/2
f 41/1/2 42/1/2 43/1/2
f 42/2/2 28/2/2 44/2/2
f 43/1/2 42/1/2 44/1/2
f 25/2/2 43/2/2 45/2/2
f 45/2/2 43/2/2 46/2/2
f 44/2/2 28/2/2 47/2/2
f 47/2/2 28/2/2 48/2/2
f 51/2/3 50/2/3 49/2/3
f 52/2/3 50/2/3 51/2/3
f 63/2/3 54/2/3 53/2/3
f 64/2/3 54/2/3 63/2/3
f 65/2/3 56/2/3 55/2/3
f 66/2/3 56/2/3 65/2/3
f 67/2/3 58/2/3 57/2/3
f 68/2/3 58/2/3 67/2/3
f 69/2/3 60/2/3 59/2/3
f 70/2/3 60/2/3 69/2/3
f 71/2/3 62/2/3 61/2/3
f 72/2/3 62/2/3 71/2/3
f 73/2/4 74/2/4 83/2/4
f 83/2/4 74/2/4 84/2/4
f 75/2/4 76/2/4 85/2/4
f 85/2/4 76/2/4 86/2/4
f 77/2/4 78/2/4 87/2/4
f 87/2/4 78/2/4 88/2/4
f 79/2/4 80/2/4 89/2/4
f 89/2/4 80/2/4 90/2/4
f 81/2/4 82/2/4 91/2/4
f 91/2/4 82/2/4 92/2/4
f 93/2/4 94/2/4 95/2/4
f 95/2/4 94/2/4 96/2/4
f 99/2/5 98/2/5 97/2/5
f 100/2/5 98/2/5 99/2/5
f 103/2/5 102/2/5 101/2/5
f 104/2/5 102/2/5 103/2/5
f 107/1/5 106/1/5 105/1/5
f 108/1/5 106/1/5 107/1/5
f 111/1/5 110/1/5 109/1/5
f 112/1/5 110/1/5 111/1/5
f 115/1/5 114/1/5 113/1/5
f 116/1/5 114/1/5 115/1/5
f 119/1/5 118/1/5 117/1/5
f 120/1/5 118/1/5 119/1/5
f 121/1/6 122/1/6 123/1/6
f 123/1/6 122/1/6 124/1/6
f 125/1/6 126/1/6 127/1/6
f 127/1/6 126/1/6 128/1/6
f 129/1/6 130/1/6 131/1/6
f 131/1/6 130/1/6 132/1/6
f 133/1/6 134/1/6 135/1/6
f 135/1/6 134/1/6 136/1/6
f 137/2/6 138/2/6 139/2/6
f 139/2/6 138/2/6 140/2/6
f 141/2/6 142/2/6 143/2/6
f 143/2/6 142/2/6 144/2/6
