# MagicaVoxel @ Ephtracy

# group
g simple chair_4_support

# material
mtllib simple chair_4_support.mtl
usemtl palette

# normals
vn -1 0 0
vn 1 0 0
vn 0 0 1
vn 0 0 -1
vn 0 -1 0
vn 0 1 0

# texcoords
vt 0.689453 0.5
vt 0.974609 0.5
vt 0.986328 0.5

# verts
v -14 25 14
v -14 25 11
v -14 57 14
v -14 57 11
v -12 25 13
v -12 25 12
v -12 44 13
v -12 44 12
v -12 46 13
v -12 46 12
v -12 52 13
v -12 52 12
v -12 54 13
v -12 54 12
v -12 57 13
v -12 57 12
v 11 25 14
v 11 25 11
v 11 44 13
v 11 44 12
v 11 54 13
v 11 54 12
v 11 57 14
v 11 57 11
v 13 25 13
v 13 25 12
v 13 57 13
v 13 57 12
v -13 25 13
v -13 25 12
v -13 46 13
v -13 46 12
v -13 52 13
v -13 52 12
v -13 57 13
v -13 57 12
v -11 25 14
v -11 25 11
v -11 44 13
v -11 44 12
v -11 54 13
v -11 54 12
v -11 57 14
v -11 57 11
v 12 25 13
v 12 25 12
v 12 44 13
v 12 44 12
v 12 54 13
v 12 54 12
v 12 57 13
v 12 57 12
v 14 25 14
v 14 25 11
v 14 57 14
v 14 57 11
v -14 25 14
v -14 57 14
v -11 25 14
v -11 57 14
v 11 25 14
v 11 57 14
v 14 25 14
v 14 57 14
v -11 44 13
v -11 54 13
v -9 46 13
v -9 52 13
v -1 46 13
v -1 52 13
v 1 46 13
v 1 52 13
v 9 46 13
v 9 52 13
v 11 44 13
v 11 54 13
v -13 25 12
v -13 46 12
v -13 52 12
v -13 57 12
v -12 25 12
v -12 44 12
v -12 46 12
v -12 52 12
v -12 54 12
v -12 57 12
v 12 25 12
v 12 44 12
v 12 54 12
v 12 57 12
v 13 25 12
v 13 57 12
v -13 25 13
v -13 46 13
v -13 52 13
v -13 57 13
v -12 25 13
v -12 44 13
v -12 46 13
v -12 52 13
v -12 54 13
v -12 57 13
v 12 25 13
v 12 44 13
v 12 54 13
v 12 57 13
v 13 25 13
v 13 57 13
v -11 44 12
v -11 54 12
v -9 46 12
v -9 52 12
v -1 46 12
v -1 52 12
v 1 46 12
v 1 52 12
v 9 46 12
v 9 52 12
v 11 44 12
v 11 54 12
v -14 25 11
v -14 57 11
v -11 25 11
v -11 57 11
v 11 25 11
v 11 57 11
v 14 25 11
v 14 57 11
v -14 25 14
v -11 25 14
v 11 25 14
v 14 25 14
v -13 25 13
v -12 25 13
v 12 25 13
v 13 25 13
v -13 25 12
v -12 25 12
v 12 25 12
v 13 25 12
v -14 25 11
v -11 25 11
v 11 25 11
v 14 25 11
v -11 44 13
v 11 44 13
v -11 44 12
v 11 44 12
v -13 46 13
v -12 46 13
v -13 46 12
v -12 46 12
v -13 52 13
v -12 52 13
v -13 52 12
v -12 52 12
v -11 54 13
v 11 54 13
v -11 54 12
v 11 54 12
v -14 57 14
v -11 57 14
v 11 57 14
v 14 57 14
v -13 57 13
v -12 57 13
v 12 57 13
v 13 57 13
v -13 57 12
v -12 57 12
v 12 57 12
v 13 57 12
v -14 57 11
v -11 57 11
v 11 57 11
v 14 57 11

# faces
f 3/3/1 2/3/1 1/3/1
f 4/3/1 2/3/1 3/3/1
f 7/3/1 6/3/1 5/3/1
f 8/3/1 6/3/1 7/3/1
f 9/2/1 8/2/1 7/2/1
f 10/2/1 8/2/1 9/2/1
f 13/2/1 12/2/1 11/2/1
f 14/2/1 12/2/1 13/2/1
f 15/3/1 14/3/1 13/3/1
f 16/3/1 14/3/1 15/3/1
f 19/3/1 18/3/1 17/3/1
f 20/3/1 18/3/1 19/3/1
f 21/3/1 19/3/1 17/3/1
f 22/3/1 18/3/1 20/3/1
f 23/3/1 21/3/1 17/3/1
f 23/3/1 22/3/1 21/3/1
f 24/3/1 18/3/1 22/3/1
f 24/3/1 22/3/1 23/3/1
f 27/3/1 26/3/1 25/3/1
f 28/3/1 26/3/1 27/3/1
f 29/3/2 30/3/2 31/3/2
f 31/3/2 30/3/2 32/3/2
f 33/3/2 34/3/2 35/3/2
f 35/3/2 34/3/2 36/3/2
f 37/3/2 38/3/2 39/3/2
f 39/3/2 38/3/2 40/3/2
f 37/3/2 39/3/2 41/3/2
f 40/3/2 38/3/2 42/3/2
f 37/3/2 41/3/2 43/3/2
f 41/3/2 42/3/2 43/3/2
f 42/3/2 38/3/2 44/3/2
f 43/3/2 42/3/2 44/3/2
f 45/3/2 46/3/2 47/3/2
f 47/3/2 46/3/2 48/3/2
f 47/2/2 48/2/2 49/2/2
f 49/2/2 48/2/2 50/2/2
f 49/3/2 50/3/2 51/3/2
f 51/3/2 50/3/2 52/3/2
f 53/3/2 54/3/2 55/3/2
f 55/3/2 54/3/2 56/3/2
f 59/3/3 58/3/3 57/3/3
f 60/3/3 58/3/3 59/3/3
f 63/3/3 62/3/3 61/3/3
f 64/3/3 62/3/3 63/3/3
f 67/3/3 66/3/3 65/3/3
f 68/3/3 66/3/3 67/3/3
f 69/3/3 67/3/3 65/3/3
f 69/1/3 68/1/3 67/1/3
f 70/3/3 66/3/3 68/3/3
f 70/1/3 68/1/3 69/1/3
f 71/3/3 69/3/3 65/3/3
f 71/3/3 70/3/3 69/3/3
f 72/3/3 66/3/3 70/3/3
f 72/3/3 70/3/3 71/3/3
f 73/3/3 71/3/3 65/3/3
f 73/1/3 72/1/3 71/1/3
f 74/3/3 66/3/3 72/3/3
f 74/1/3 72/1/3 73/1/3
f 75/3/3 73/3/3 65/3/3
f 75/3/3 74/3/3 73/3/3
f 76/3/3 66/3/3 74/3/3
f 76/3/3 74/3/3 75/3/3
f 81/3/3 78/3/3 77/3/3
f 82/3/3 78/3/3 81/3/3
f 83/3/3 78/3/3 82/3/3
f 84/3/3 80/3/3 79/3/3
f 85/3/3 80/3/3 84/3/3
f 86/3/3 80/3/3 85/3/3
f 91/3/3 88/3/3 87/3/3
f 91/3/3 90/3/3 89/3/3
f 91/3/3 89/3/3 88/3/3
f 92/3/3 90/3/3 91/3/3
f 93/3/4 94/3/4 97/3/4
f 97/3/4 94/3/4 98/3/4
f 98/3/4 94/3/4 99/3/4
f 95/3/4 96/3/4 100/3/4
f 100/3/4 96/3/4 101/3/4
f 101/3/4 96/3/4 102/3/4
f 103/3/4 104/3/4 107/3/4
f 105/3/4 106/3/4 107/3/4
f 104/3/4 105/3/4 107/3/4
f 107/3/4 106/3/4 108/3/4
f 109/3/4 110/3/4 111/3/4
f 111/3/4 110/3/4 112/3/4
f 109/3/4 111/3/4 113/3/4
f 111/1/4 112/1/4 113/1/4
f 112/3/4 110/3/4 114/3/4
f 113/1/4 112/1/4 114/1/4
f 109/3/4 113/3/4 115/3/4
f 113/3/4 114/3/4 115/3/4
f 114/3/4 110/3/4 116/3/4
f 115/3/4 114/3/4 116/3/4
f 109/3/4 115/3/4 117/3/4
f 115/1/4 116/1/4 117/1/4
f 116/3/4 110/3/4 118/3/4
f 117/1/4 116/1/4 118/1/4
f 109/3/4 117/3/4 119/3/4
f 117/3/4 118/3/4 119/3/4
f 118/3/4 110/3/4 120/3/4
f 119/3/4 118/3/4 120/3/4
f 121/3/4 122/3/4 123/3/4
f 123/3/4 122/3/4 124/3/4
f 125/3/4 126/3/4 127/3/4
f 127/3/4 126/3/4 128/3/4
f 133/3/5 130/3/5 129/3/5
f 134/3/5 130/3/5 133/3/5
f 135/3/5 132/3/5 131/3/5
f 136/3/5 132/3/5 135/3/5
f 137/3/5 133/3/5 129/3/5
f 138/3/5 130/3/5 134/3/5
f 139/3/5 135/3/5 131/3/5
f 140/3/5 132/3/5 136/3/5
f 141/3/5 137/3/5 129/3/5
f 141/3/5 138/3/5 137/3/5
f 142/3/5 130/3/5 138/3/5
f 142/3/5 138/3/5 141/3/5
f 143/3/5 140/3/5 139/3/5
f 143/3/5 139/3/5 131/3/5
f 144/3/5 132/3/5 140/3/5
f 144/3/5 140/3/5 143/3/5
f 147/3/5 146/3/5 145/3/5
f 148/3/5 146/3/5 147/3/5
f 151/1/5 150/1/5 149/1/5
f 152/1/5 150/1/5 151/1/5
f 153/1/6 154/1/6 155/1/6
f 155/1/6 154/1/6 156/1/6
f 157/3/6 158/3/6 159/3/6
f 159/3/6 158/3/6 160/3/6
f 161/3/6 162/3/6 165/3/6
f 165/3/6 162/3/6 166/3/6
f 163/3/6 164/3/6 167/3/6
f 167/3/6 164/3/6 168/3/6
f 161/3/6 165/3/6 169/3/6
f 166/3/6 162/3/6 170/3/6
f 163/3/6 167/3/6 171/3/6
f 168/3/6 164/3/6 172/3/6
f 161/3/6 169/3/6 173/3/6
f 169/3/6 170/3/6 173/3/6
f 170/3/6 162/3/6 174/3/6
f 173/3/6 170/3/6 174/3/6
f 171/3/6 172/3/6 175/3/6
f 163/3/6 171/3/6 175/3/6
f 172/3/6 164/3/6 176/3/6
f 175/3/6 172/3/6 176/3/6
