# MagicaVoxel @ Ephtracy

# group
g belt_X

# material
mtllib belt_X.mtl
usemtl palette

# normals
vn -1 0 0
vn 1 0 0
vn 0 0 1
vn 0 0 -1
vn 0 -1 0
vn 0 1 0

# texcoords
vt 0.927734 0.5
vt 0.990234 0.5

# verts
v -32 5 10
v -32 5 8
v -32 5 1
v -32 5 -1
v -32 5 -8
v -32 5 -10
v -32 7 8
v -32 7 1
v -32 7 -1
v -32 7 -8
v -32 8 10
v -32 8 9
v -32 8 8
v -32 8 -8
v -32 8 -9
v -32 8 -10
v -32 9 9
v -32 9 8
v -32 9 -8
v -32 9 -9
v -23 0 10
v -23 0 8
v -23 0 1
v -23 0 -1
v -23 0 -8
v -23 0 -10
v -23 5 10
v -23 5 8
v -23 5 1
v -23 5 -1
v -23 5 -8
v -23 5 -10
v -10 0 23
v -10 0 21
v -10 0 10
v -10 0 8
v -10 0 1
v -10 0 -1
v -10 0 -8
v -10 0 -10
v -10 0 -21
v -10 0 -23
v -10 5 32
v -10 5 23
v -10 5 21
v -10 5 10
v -10 5 8
v -10 5 1
v -10 5 -1
v -10 5 -8
v -10 5 -10
v -10 5 -21
v -10 5 -23
v -10 5 -32
v -10 7 8
v -10 7 1
v -10 7 -1
v -10 7 -8
v -10 8 32
v -10 8 10
v -10 8 -10
v -10 8 -32
v -9 8 32
v -9 8 9
v -9 8 -9
v -9 8 -32
v -9 9 32
v -9 9 9
v -9 9 -9
v -9 9 -32
v -1 0 23
v -1 0 21
v -1 0 10
v -1 0 8
v -1 0 1
v -1 0 -1
v -1 0 -8
v -1 0 -10
v -1 0 -21
v -1 0 -23
v -1 5 32
v -1 5 23
v -1 5 21
v -1 5 10
v -1 5 8
v -1 5 1
v -1 5 -1
v -1 5 -8
v -1 5 -10
v -1 5 -21
v -1 5 -23
v -1 5 -32
v -1 7 32
v -1 7 10
v -1 7 8
v -1 7 1
v -1 7 -1
v -1 7 -8
v -1 7 -10
v -1 7 -32
v 8 0 23
v 8 0 21
v 8 0 10
v 8 0 8
v 8 0 1
v 8 0 -1
v 8 0 -8
v 8 0 -10
v 8 0 -21
v 8 0 -23
v 8 5 32
v 8 5 23
v 8 5 21
v 8 5 10
v 8 5 8
v 8 5 1
v 8 5 -1
v 8 5 -8
v 8 5 -10
v 8 5 -21
v 8 5 -23
v 8 5 -32
v 8 7 32
v 8 7 10
v 8 7 8
v 8 7 1
v 8 7 -1
v 8 7 -8
v 8 7 -10
v 8 7 -32
v 8 8 32
v 8 8 8
v 8 8 -8
v 8 8 -32
v 8 9 32
v 8 9 8
v 8 9 -8
v 8 9 -32
v 9 7 9
v 9 7 8
v 9 8 9
v 9 8 8
v 21 0 10
v 21 0 8
v 21 0 1
v 21 0 -1
v 21 0 -8
v 21 0 -10
v 21 5 10
v 21 5 8
v 21 5 1
v 21 5 -1
v 21 5 -8
v 21 5 -10
v -21 0 10
v -21 0 8
v -21 0 1
v -21 0 -1
v -21 0 -8
v -21 0 -10
v -21 5 10
v -21 5 8
v -21 5 1
v -21 5 -1
v -21 5 -8
v -21 5 -10
v -8 0 23
v -8 0 21
v -8 0 10
v -8 0 8
v -8 0 1
v -8 0 -1
v -8 0 -8
v -8 0 -10
v -8 0 -21
v -8 0 -23
v -8 5 32
v -8 5 23
v -8 5 21
v -8 5 10
v -8 5 8
v -8 5 1
v -8 5 -1
v -8 5 -8
v -8 5 -10
v -8 5 -21
v -8 5 -23
v -8 5 -32
v -8 7 32
v -8 7 10
v -8 7 8
v -8 7 1
v -8 7 -1
v -8 7 -8
v -8 7 -10
v -8 7 -32
v -8 8 32
v -8 8 8
v -8 8 -8
v -8 8 -32
v -8 9 32
v -8 9 8
v -8 9 -8
v -8 9 -32
v 1 0 23
v 1 0 21
v 1 0 10
v 1 0 8
v 1 0 1
v 1 0 -1
v 1 0 -8
v 1 0 -10
v 1 0 -21
v 1 0 -23
v 1 5 32
v 1 5 23
v 1 5 21
v 1 5 10
v 1 5 8
v 1 5 1
v 1 5 -1
v 1 5 -8
v 1 5 -10
v 1 5 -21
v 1 5 -23
v 1 5 -32
v 1 7 32
v 1 7 10
v 1 7 8
v 1 7 1
v 1 7 -1
v 1 7 -8
v 1 7 -10
v 1 7 -32
v 8 7 9
v 8 7 8
v 8 8 9
v 8 8 8
v 9 8 32
v 9 8 9
v 9 8 -9
v 9 8 -32
v 9 9 32
v 9 9 9
v 9 9 -9
v 9 9 -32
v 10 0 23
v 10 0 21
v 10 0 10
v 10 0 8
v 10 0 1
v 10 0 -1
v 10 0 -8
v 10 0 -10
v 10 0 -21
v 10 0 -23
v 10 5 32
v 10 5 23
v 10 5 21
v 10 5 10
v 10 5 8
v 10 5 1
v 10 5 -1
v 10 5 -8
v 10 5 -10
v 10 5 -21
v 10 5 -23
v 10 5 -32
v 10 7 8
v 10 7 1
v 10 7 -1
v 10 7 -8
v 10 8 32
v 10 8 10
v 10 8 -10
v 10 8 -32
v 23 0 10
v 23 0 8
v 23 0 1
v 23 0 -1
v 23 0 -8
v 23 0 -10
v 23 5 10
v 23 5 8
v 23 5 1
v 23 5 -1
v 23 5 -8
v 23 5 -10
v 32 5 10
v 32 5 8
v 32 5 1
v 32 5 -1
v 32 5 -8
v 32 5 -10
v 32 7 8
v 32 7 1
v 32 7 -1
v 32 7 -8
v 32 8 10
v 32 8 9
v 32 8 8
v 32 8 -8
v 32 8 -9
v 32 8 -10
v 32 9 9
v 32 9 8
v 32 9 -8
v 32 9 -9
v -10 5 32
v -10 8 32
v -9 8 32
v -9 9 32
v -8 5 32
v -8 7 32
v -8 8 32
v -8 9 32
v -1 5 32
v -1 7 32
v 1 5 32
v 1 7 32
v 8 5 32
v 8 7 32
v 8 8 32
v 8 9 32
v 9 8 32
v 9 9 32
v 10 5 32
v 10 8 32
v -10 0 23
v -10 5 23
v -8 0 23
v -8 5 23
v -1 0 23
v -1 5 23
v 1 0 23
v 1 5 23
v 8 0 23
v 8 5 23
v 10 0 23
v 10 5 23
v -32 5 10
v -32 8 10
v -23 0 10
v -23 5 10
v -21 0 10
v -21 5 10
v -10 0 10
v -10 5 10
v -10 8 10
v -8 0 10
v -8 5 10
v -8 7 10
v -1 0 10
v -1 5 10
v -1 7 10
v 1 0 10
v 1 5 10
v 1 7 10
v 8 0 10
v 8 5 10
v 8 7 10
v 10 0 10
v 10 5 10
v 10 8 10
v 21 0 10
v 21 5 10
v 23 0 10
v 23 5 10
v 32 5 10
v 32 8 10
v -32 8 9
v -32 9 9
v -9 8 9
v -9 9 9
v 9 8 9
v 9 9 9
v 32 8 9
v 32 9 9
v 8 7 8
v 8 8 8
v 9 7 8
v 9 8 8
v -32 5 1
v -32 7 1
v -23 0 1
v -23 5 1
v -21 0 1
v -21 5 1
v -10 0 1
v -10 5 1
v -10 7 1
v -8 0 1
v -8 5 1
v -8 7 1
v -1 0 1
v -1 5 1
v -1 7 1
v 1 0 1
v 1 5 1
v 1 7 1
v 8 0 1
v 8 5 1
v 8 7 1
v 10 0 1
v 10 5 1
v 10 7 1
v 21 0 1
v 21 5 1
v 23 0 1
v 23 5 1
v 32 5 1
v 32 7 1
v -32 5 -8
v -32 7 -8
v -32 8 -8
v -32 9 -8
v -23 0 -8
v -23 5 -8
v -21 0 -8
v -21 5 -8
v -10 0 -8
v -10 5 -8
v -10 7 -8
v -8 0 -8
v -8 5 -8
v -8 7 -8
v -8 8 -8
v -8 9 -8
v -1 0 -8
v -1 5 -8
v -1 7 -8
v 1 0 -8
v 1 5 -8
v 1 7 -8
v 8 0 -8
v 8 5 -8
v 8 7 -8
v 8 8 -8
v 8 9 -8
v 10 0 -8
v 10 5 -8
v 10 7 -8
v 21 0 -8
v 21 5 -8
v 23 0 -8
v 23 5 -8
v 32 5 -8
v 32 7 -8
v 32 8 -8
v 32 9 -8
v -10 0 -21
v -10 5 -21
v -8 0 -21
v -8 5 -21
v -1 0 -21
v -1 5 -21
v 1 0 -21
v 1 5 -21
v 8 0 -21
v 8 5 -21
v 10 0 -21
v 10 5 -21
v -10 0 21
v -10 5 21
v -8 0 21
v -8 5 21
v -1 0 21
v -1 5 21
v 1 0 21
v 1 5 21
v 8 0 21
v 8 5 21
v 10 0 21
v 10 5 21
v 8 7 9
v 8 8 9
v 9 7 9
v 9 8 9
v -32 5 8
v -32 7 8
v -32 8 8
v -32 9 8
v -23 0 8
v -23 5 8
v -21 0 8
v -21 5 8
v -10 0 8
v -10 5 8
v -10 7 8
v -8 0 8
v -8 5 8
v -8 7 8
v -8 8 8
v -8 9 8
v -1 0 8
v -1 5 8
v -1 7 8
v 1 0 8
v 1 5 8
v 1 7 8
v 8 0 8
v 8 5 8
v 8 7 8
v 8 8 8
v 8 9 8
v 10 0 8
v 10 5 8
v 10 7 8
v 21 0 8
v 21 5 8
v 23 0 8
v 23 5 8
v 32 5 8
v 32 7 8
v 32 8 8
v 32 9 8
v -32 5 -1
v -32 7 -1
v -23 0 -1
v -23 5 -1
v -21 0 -1
v -21 5 -1
v -10 0 -1
v -10 5 -1
v -10 7 -1
v -8 0 -1
v -8 5 -1
v -8 7 -1
v -1 0 -1
v -1 5 -1
v -1 7 -1
v 1 0 -1
v 1 5 -1
v 1 7 -1
v 8 0 -1
v 8 5 -1
v 8 7 -1
v 10 0 -1
v 10 5 -1
v 10 7 -1
v 21 0 -1
v 21 5 -1
v 23 0 -1
v 23 5 -1
v 32 5 -1
v 32 7 -1
v -32 8 -9
v -32 9 -9
v -9 8 -9
v -9 9 -9
v 9 8 -9
v 9 9 -9
v 32 8 -9
v 32 9 -9
v -32 5 -10
v -32 8 -10
v -23 0 -10
v -23 5 -10
v -21 0 -10
v -21 5 -10
v -10 0 -10
v -10 5 -10
v -10 8 -10
v -8 0 -10
v -8 5 -10
v -8 7 -10
v -1 0 -10
v -1 5 -10
v -1 7 -10
v 1 0 -10
v 1 5 -10
v 1 7 -10
v 8 0 -10
v 8 5 -10
v 8 7 -10
v 10 0 -10
v 10 5 -10
v 10 8 -10
v 21 0 -10
v 21 5 -10
v 23 0 -10
v 23 5 -10
v 32 5 -10
v 32 8 -10
v -10 0 -23
v -10 5 -23
v -8 0 -23
v -8 5 -23
v -1 0 -23
v -1 5 -23
v 1 0 -23
v 1 5 -23
v 8 0 -23
v 8 5 -23
v 10 0 -23
v 10 5 -23
v -10 5 -32
v -10 8 -32
v -9 8 -32
v -9 9 -32
v -8 5 -32
v -8 7 -32
v -8 8 -32
v -8 9 -32
v -1 5 -32
v -1 7 -32
v 1 5 -32
v 1 7 -32
v 8 5 -32
v 8 7 -32
v 8 8 -32
v 8 9 -32
v 9 8 -32
v 9 9 -32
v 10 5 -32
v 10 8 -32
v -10 0 23
v -8 0 23
v -1 0 23
v 1 0 23
v 8 0 23
v 10 0 23
v -10 0 21
v -8 0 21
v -1 0 21
v 1 0 21
v 8 0 21
v 10 0 21
v -23 0 10
v -21 0 10
v -10 0 10
v -8 0 10
v -1 0 10
v 1 0 10
v 8 0 10
v 10 0 10
v 21 0 10
v 23 0 10
v -23 0 8
v -21 0 8
v -10 0 8
v -8 0 8
v -1 0 8
v 1 0 8
v 8 0 8
v 10 0 8
v 21 0 8
v 23 0 8
v -23 0 1
v -21 0 1
v -10 0 1
v -8 0 1
v -1 0 1
v 1 0 1
v 8 0 1
v 10 0 1
v 21 0 1
v 23 0 1
v -23 0 -1
v -21 0 -1
v -10 0 -1
v -8 0 -1
v -1 0 -1
v 1 0 -1
v 8 0 -1
v 10 0 -1
v 21 0 -1
v 23 0 -1
v -23 0 -8
v -21 0 -8
v -10 0 -8
v -8 0 -8
v -1 0 -8
v 1 0 -8
v 8 0 -8
v 10 0 -8
v 21 0 -8
v 23 0 -8
v -23 0 -10
v -21 0 -10
v -10 0 -10
v -8 0 -10
v -1 0 -10
v 1 0 -10
v 8 0 -10
v 10 0 -10
v 21 0 -10
v 23 0 -10
v -10 0 -21
v -8 0 -21
v -1 0 -21
v 1 0 -21
v 8 0 -21
v 10 0 -21
v -10 0 -23
v -8 0 -23
v -1 0 -23
v 1 0 -23
v 8 0 -23
v 10 0 -23
v -10 5 32
v -8 5 32
v -1 5 32
v 1 5 32
v 8 5 32
v 10 5 32
v -10 5 23
v -8 5 23
v -1 5 23
v 1 5 23
v 8 5 23
v 10 5 23
v -10 5 21
v -8 5 21
v -1 5 21
v 1 5 21
v 8 5 21
v 10 5 21
v -32 5 10
v -23 5 10
v -21 5 10
v -10 5 10
v -8 5 10
v -1 5 10
v 1 5 10
v 8 5 10
v 10 5 10
v 21 5 10
v 23 5 10
v 32 5 10
v -32 5 8
v -23 5 8
v -21 5 8
v -10 5 8
v -8 5 8
v -1 5 8
v 1 5 8
v 8 5 8
v 10 5 8
v 21 5 8
v 23 5 8
v 32 5 8
v -32 5 1
v -23 5 1
v -21 5 1
v -10 5 1
v -8 5 1
v -1 5 1
v 1 5 1
v 8 5 1
v 10 5 1
v 21 5 1
v 23 5 1
v 32 5 1
v -32 5 -1
v -23 5 -1
v -21 5 -1
v -10 5 -1
v -8 5 -1
v -1 5 -1
v 1 5 -1
v 8 5 -1
v 10 5 -1
v 21 5 -1
v 23 5 -1
v 32 5 -1
v -32 5 -8
v -23 5 -8
v -21 5 -8
v -10 5 -8
v -8 5 -8
v -1 5 -8
v 1 5 -8
v 8 5 -8
v 10 5 -8
v 21 5 -8
v 23 5 -8
v 32 5 -8
v -32 5 -10
v -23 5 -10
v -21 5 -10
v -10 5 -10
v -8 5 -10
v -1 5 -10
v 1 5 -10
v 8 5 -10
v 10 5 -10
v 21 5 -10
v 23 5 -10
v 32 5 -10
v -10 5 -21
v -8 5 -21
v -1 5 -21
v 1 5 -21
v 8 5 -21
v 10 5 -21
v -10 5 -23
v -8 5 -23
v -1 5 -23
v 1 5 -23
v 8 5 -23
v 10 5 -23
v -10 5 -32
v -8 5 -32
v -1 5 -32
v 1 5 -32
v 8 5 -32
v 10 5 -32
v -8 7 32
v -1 7 32
v 1 7 32
v 8 7 32
v -8 7 10
v -1 7 10
v 1 7 10
v 8 7 10
v -32 7 8
v -10 7 8
v -8 7 8
v -1 7 8
v 1 7 8
v 8 7 8
v 10 7 8
v 32 7 8
v -32 7 1
v -10 7 1
v -8 7 1
v -1 7 1
v 1 7 1
v 8 7 1
v 10 7 1
v 32 7 1
v -32 7 -1
v -10 7 -1
v -8 7 -1
v -1 7 -1
v 1 7 -1
v 8 7 -1
v 10 7 -1
v 32 7 -1
v -32 7 -8
v -10 7 -8
v -8 7 -8
v -1 7 -8
v 1 7 -8
v 8 7 -8
v 10 7 -8
v 32 7 -8
v -8 7 -10
v -1 7 -10
v 1 7 -10
v 8 7 -10
v -8 7 -32
v -1 7 -32
v 1 7 -32
v 8 7 -32
v 8 8 9
v 9 8 9
v 8 8 8
v 9 8 8
v 8 7 9
v 9 7 9
v 8 7 8
v 9 7 8
v -10 8 32
v -9 8 32
v -8 8 32
v 8 8 32
v 9 8 32
v 10 8 32
v -32 8 10
v -10 8 10
v 10 8 10
v 32 8 10
v -32 8 9
v -9 8 9
v 9 8 9
v 32 8 9
v -32 8 8
v -8 8 8
v 8 8 8
v 32 8 8
v -32 8 -8
v -8 8 -8
v 8 8 -8
v 32 8 -8
v -32 8 -9
v -9 8 -9
v 9 8 -9
v 32 8 -9
v -32 8 -10
v -10 8 -10
v 10 8 -10
v 32 8 -10
v -10 8 -32
v -9 8 -32
v -8 8 -32
v 8 8 -32
v 9 8 -32
v 10 8 -32
v -9 9 32
v -8 9 32
v 8 9 32
v 9 9 32
v -32 9 9
v -9 9 9
v 9 9 9
v 32 9 9
v -32 9 8
v -8 9 8
v 8 9 8
v 32 9 8
v -32 9 -8
v -8 9 -8
v 8 9 -8
v 32 9 -8
v -32 9 -9
v -9 9 -9
v 9 9 -9
v 32 9 -9
v -9 9 -32
v -8 9 -32
v 8 9 -32
v 9 9 -32

# faces
f 7/1/1 2/1/1 1/1/1
f 8/1/1 4/1/1 3/1/1
f 9/1/1 4/1/1 8/1/1
f 10/1/1 6/1/1 5/1/1
f 11/1/1 7/1/1 1/1/1
f 12/1/1 7/1/1 11/1/1
f 13/2/1 9/2/1 8/2/1
f 13/1/1 7/1/1 12/1/1
f 13/2/1 10/2/1 9/2/1
f 13/2/1 8/2/1 7/2/1
f 14/1/1 6/1/1 10/1/1
f 14/2/1 10/2/1 13/2/1
f 15/1/1 6/1/1 14/1/1
f 16/1/1 6/1/1 15/1/1
f 17/1/1 13/1/1 12/1/1
f 18/1/1 13/1/1 17/1/1
f 19/1/1 15/1/1 14/1/1
f 20/1/1 15/1/1 19/1/1
f 27/1/1 22/1/1 21/1/1
f 28/1/1 22/1/1 27/1/1
f 29/1/1 24/1/1 23/1/1
f 30/1/1 24/1/1 29/1/1
f 31/1/1 26/1/1 25/1/1
f 32/1/1 26/1/1 31/1/1
f 44/1/1 34/1/1 33/1/1
f 45/1/1 34/1/1 44/1/1
f 46/1/1 36/1/1 35/1/1
f 47/1/1 36/1/1 46/1/1
f 48/1/1 38/1/1 37/1/1
f 49/1/1 38/1/1 48/1/1
f 50/1/1 40/1/1 39/1/1
f 51/1/1 40/1/1 50/1/1
f 52/1/1 42/1/1 41/1/1
f 53/1/1 42/1/1 52/1/1
f 55/1/1 48/1/1 47/1/1
f 56/1/1 48/1/1 55/1/1
f 57/1/1 50/1/1 49/1/1
f 58/1/1 50/1/1 57/1/1
f 59/1/1 45/1/1 44/1/1
f 59/1/1 44/1/1 43/1/1
f 59/1/1 46/1/1 45/1/1
f 60/1/1 46/1/1 59/1/1
f 61/1/1 54/1/1 53/1/1
f 61/1/1 53/1/1 52/1/1
f 61/1/1 52/1/1 51/1/1
f 62/1/1 54/1/1 61/1/1
f 67/1/1 64/1/1 63/1/1
f 68/1/1 64/1/1 67/1/1
f 69/1/1 66/1/1 65/1/1
f 70/1/1 66/1/1 69/1/1
f 82/1/1 72/1/1 71/1/1
f 83/1/1 72/1/1 82/1/1
f 84/1/1 74/1/1 73/1/1
f 85/1/1 74/1/1 84/1/1
f 86/1/1 76/1/1 75/1/1
f 87/1/1 76/1/1 86/1/1
f 88/1/1 78/1/1 77/1/1
f 89/1/1 78/1/1 88/1/1
f 90/1/1 80/1/1 79/1/1
f 91/1/1 80/1/1 90/1/1
f 93/1/1 83/1/1 82/1/1
f 93/1/1 82/1/1 81/1/1
f 93/1/1 84/1/1 83/1/1
f 94/1/1 84/1/1 93/1/1
f 95/1/1 86/1/1 85/1/1
f 96/1/1 86/1/1 95/1/1
f 97/1/1 88/1/1 87/1/1
f 98/1/1 88/1/1 97/1/1
f 99/1/1 92/1/1 91/1/1
f 99/1/1 91/1/1 90/1/1
f 99/1/1 90/1/1 89/1/1
f 100/1/1 92/1/1 99/1/1
f 112/1/1 102/1/1 101/1/1
f 113/1/1 102/1/1 112/1/1
f 114/1/1 104/1/1 103/1/1
f 115/1/1 104/1/1 114/1/1
f 116/1/1 106/1/1 105/1/1
f 117/1/1 106/1/1 116/1/1
f 118/1/1 108/1/1 107/1/1
f 119/1/1 108/1/1 118/1/1
f 120/1/1 110/1/1 109/1/1
f 121/1/1 110/1/1 120/1/1
f 123/1/1 113/1/1 112/1/1
f 123/1/1 112/1/1 111/1/1
f 123/1/1 114/1/1 113/1/1
f 124/1/1 114/1/1 123/1/1
f 125/1/1 116/1/1 115/1/1
f 126/1/1 116/1/1 125/1/1
f 127/1/1 118/1/1 117/1/1
f 128/1/1 118/1/1 127/1/1
f 129/1/1 122/1/1 121/1/1
f 129/1/1 121/1/1 120/1/1
f 129/1/1 120/1/1 119/1/1
f 130/1/1 122/1/1 129/1/1
f 135/1/1 132/1/1 131/1/1
f 136/1/1 132/1/1 135/1/1
f 137/1/1 134/1/1 133/1/1
f 138/1/1 134/1/1 137/1/1
f 141/1/1 140/1/1 139/1/1
f 142/1/1 140/1/1 141/1/1
f 149/1/1 144/1/1 143/1/1
f 150/1/1 144/1/1 149/1/1
f 151/1/1 146/1/1 145/1/1
f 152/1/1 146/1/1 151/1/1
f 153/1/1 148/1/1 147/1/1
f 154/1/1 148/1/1 153/1/1
f 155/1/2 156/1/2 161/1/2
f 161/1/2 156/1/2 162/1/2
f 157/1/2 158/1/2 163/1/2
f 163/1/2 158/1/2 164/1/2
f 159/1/2 160/1/2 165/1/2
f 165/1/2 160/1/2 166/1/2
f 167/1/2 168/1/2 178/1/2
f 178/1/2 168/1/2 179/1/2
f 169/1/2 170/1/2 180/1/2
f 180/1/2 170/1/2 181/1/2
f 171/1/2 172/1/2 182/1/2
f 182/1/2 172/1/2 183/1/2
f 173/1/2 174/1/2 184/1/2
f 184/1/2 174/1/2 185/1/2
f 175/1/2 176/1/2 186/1/2
f 186/1/2 176/1/2 187/1/2
f 178/1/2 179/1/2 189/1/2
f 177/1/2 178/1/2 189/1/2
f 179/1/2 180/1/2 189/1/2
f 189/1/2 180/1/2 190/1/2
f 181/1/2 182/1/2 191/1/2
f 191/1/2 182/1/2 192/1/2
f 183/1/2 184/1/2 193/1/2
f 193/1/2 184/1/2 194/1/2
f 187/1/2 188/1/2 195/1/2
f 186/1/2 187/1/2 195/1/2
f 185/1/2 186/1/2 195/1/2
f 195/1/2 188/1/2 196/1/2
f 197/1/2 198/1/2 201/1/2
f 201/1/2 198/1/2 202/1/2
f 199/1/2 200/1/2 203/1/2
f 203/1/2 200/1/2 204/1/2
f 205/1/2 206/1/2 216/1/2
f 216/1/2 206/1/2 217/1/2
f 207/1/2 208/1/2 218/1/2
f 218/1/2 208/1/2 219/1/2
f 209/1/2 210/1/2 220/1/2
f 220/1/2 210/1/2 221/1/2
f 211/1/2 212/1/2 222/1/2
f 222/1/2 212/1/2 223/1/2
f 213/1/2 214/1/2 224/1/2
f 224/1/2 214/1/2 225/1/2
f 216/1/2 217/1/2 227/1/2
f 215/1/2 216/1/2 227/1/2
f 217/1/2 218/1/2 227/1/2
f 227/1/2 218/1/2 228/1/2
f 219/1/2 220/1/2 229/1/2
f 229/1/2 220/1/2 230/1/2
f 221/1/2 222/1/2 231/1/2
f 231/1/2 222/1/2 232/1/2
f 225/1/2 226/1/2 233/1/2
f 224/1/2 225/1/2 233/1/2
f 223/1/2 224/1/2 233/1/2
f 233/1/2 226/1/2 234/1/2
f 235/2/2 236/2/2 237/2/2
f 237/2/2 236/2/2 238/2/2
f 239/1/2 240/1/2 243/1/2
f 243/1/2 240/1/2 244/1/2
f 241/1/2 242/1/2 245/1/2
f 245/1/2 242/1/2 246/1/2
f 247/1/2 248/1/2 258/1/2
f 258/1/2 248/1/2 259/1/2
f 249/1/2 250/1/2 260/1/2
f 260/1/2 250/1/2 261/1/2
f 251/1/2 252/1/2 262/1/2
f 262/1/2 252/1/2 263/1/2
f 253/1/2 254/1/2 264/1/2
f 264/1/2 254/1/2 265/1/2
f 255/1/2 256/1/2 266/1/2
f 266/1/2 256/1/2 267/1/2
f 261/1/2 262/1/2 269/1/2
f 269/1/2 262/1/2 270/1/2
f 263/1/2 264/1/2 271/1/2
f 271/1/2 264/1/2 272/1/2
f 258/1/2 259/1/2 273/1/2
f 257/1/2 258/1/2 273/1/2
f 259/1/2 260/1/2 273/1/2
f 273/1/2 260/1/2 274/1/2
f 267/1/2 268/1/2 275/1/2
f 266/1/2 267/1/2 275/1/2
f 265/1/2 266/1/2 275/1/2
f 275/1/2 268/1/2 276/1/2
f 277/1/2 278/1/2 283/1/2
f 283/1/2 278/1/2 284/1/2
f 279/1/2 280/1/2 285/1/2
f 285/1/2 280/1/2 286/1/2
f 281/1/2 282/1/2 287/1/2
f 287/1/2 282/1/2 288/1/2
f 289/1/2 290/1/2 295/1/2
f 291/1/2 292/1/2 296/1/2
f 296/1/2 292/1/2 297/1/2
f 293/1/2 294/1/2 298/1/2
f 289/1/2 295/1/2 299/1/2
f 299/1/2 295/1/2 300/1/2
f 296/2/2 297/2/2 301/2/2
f 300/1/2 295/1/2 301/1/2
f 297/2/2 298/2/2 301/2/2
f 295/2/2 296/2/2 301/2/2
f 298/1/2 294/1/2 302/1/2
f 301/2/2 298/2/2 302/2/2
f 302/1/2 294/1/2 303/1/2
f 303/1/2 294/1/2 304/1/2
f 300/1/2 301/1/2 305/1/2
f 305/1/2 301/1/2 306/1/2
f 302/1/2 303/1/2 307/1/2
f 307/1/2 303/1/2 308/1/2
f 311/1/3 310/1/3 309/1/3
f 313/1/3 311/1/3 309/1/3
f 313/1/3 312/1/3 311/1/3
f 314/1/3 312/1/3 313/1/3
f 315/1/3 312/1/3 314/1/3
f 316/1/3 312/1/3 315/1/3
f 318/2/3 315/2/3 314/2/3
f 319/1/3 318/1/3 317/1/3
f 320/2/3 315/2/3 318/2/3
f 320/1/3 318/1/3 319/1/3
f 322/2/3 315/2/3 320/2/3
f 323/2/3 315/2/3 322/2/3
f 325/1/3 322/1/3 321/1/3
f 325/1/3 324/1/3 323/1/3
f 325/1/3 323/1/3 322/1/3
f 326/1/3 324/1/3 325/1/3
f 327/1/3 325/1/3 321/1/3
f 328/1/3 325/1/3 327/1/3
f 331/1/3 330/1/3 329/1/3
f 332/1/3 330/1/3 331/1/3
f 335/1/3 334/1/3 333/1/3
f 336/1/3 334/1/3 335/1/3
f 339/1/3 338/1/3 337/1/3
f 340/1/3 338/1/3 339/1/3
f 344/1/3 342/1/3 341/1/3
f 345/1/3 344/1/3 343/1/3
f 346/1/3 342/1/3 344/1/3
f 346/1/3 344/1/3 345/1/3
f 348/1/3 342/1/3 346/1/3
f 349/1/3 342/1/3 348/1/3
f 350/1/3 348/1/3 347/1/3
f 351/1/3 348/1/3 350/1/3
f 354/1/3 352/1/3 351/1/3
f 355/1/3 352/1/3 354/1/3
f 356/1/3 354/1/3 353/1/3
f 357/1/3 354/1/3 356/1/3
f 360/1/3 358/1/3 357/1/3
f 361/1/3 358/1/3 360/1/3
f 362/1/3 360/1/3 359/1/3
f 363/1/3 360/1/3 362/1/3
f 366/1/3 364/1/3 363/1/3
f 367/1/3 366/1/3 365/1/3
f 368/1/3 364/1/3 366/1/3
f 368/1/3 366/1/3 367/1/3
f 369/1/3 364/1/3 368/1/3
f 370/1/3 364/1/3 369/1/3
f 373/1/3 372/1/3 371/1/3
f 374/1/3 372/1/3 373/1/3
f 377/1/3 376/1/3 375/1/3
f 378/1/3 376/1/3 377/1/3
f 381/2/3 380/2/3 379/2/3
f 382/2/3 380/2/3 381/2/3
f 386/1/3 384/1/3 383/1/3
f 387/1/3 386/1/3 385/1/3
f 388/1/3 384/1/3 386/1/3
f 388/1/3 386/1/3 387/1/3
f 390/1/3 384/1/3 388/1/3
f 391/1/3 384/1/3 390/1/3
f 392/1/3 390/1/3 389/1/3
f 393/1/3 390/1/3 392/1/3
f 396/1/3 394/1/3 393/1/3
f 397/1/3 394/1/3 396/1/3
f 398/1/3 396/1/3 395/1/3
f 399/1/3 396/1/3 398/1/3
f 402/1/3 400/1/3 399/1/3
f 403/1/3 400/1/3 402/1/3
f 404/1/3 402/1/3 401/1/3
f 405/1/3 402/1/3 404/1/3
f 408/1/3 406/1/3 405/1/3
f 409/1/3 408/1/3 407/1/3
f 410/1/3 406/1/3 408/1/3
f 410/1/3 408/1/3 409/1/3
f 411/1/3 406/1/3 410/1/3
f 412/1/3 406/1/3 411/1/3
f 418/1/3 414/1/3 413/1/3
f 419/1/3 418/1/3 417/1/3
f 420/1/3 414/1/3 418/1/3
f 420/1/3 418/1/3 419/1/3
f 422/1/3 414/1/3 420/1/3
f 423/1/3 414/1/3 422/1/3
f 424/1/3 422/1/3 421/1/3
f 425/1/3 422/1/3 424/1/3
f 427/1/3 416/1/3 415/1/3
f 428/1/3 416/1/3 427/1/3
f 430/1/3 426/1/3 425/1/3
f 431/1/3 426/1/3 430/1/3
f 432/1/3 430/1/3 429/1/3
f 433/1/3 430/1/3 432/1/3
f 436/1/3 434/1/3 433/1/3
f 437/1/3 434/1/3 436/1/3
f 440/1/3 436/1/3 435/1/3
f 441/1/3 436/1/3 440/1/3
f 444/1/3 442/1/3 441/1/3
f 445/1/3 444/1/3 443/1/3
f 446/1/3 442/1/3 444/1/3
f 446/1/3 444/1/3 445/1/3
f 447/1/3 442/1/3 446/1/3
f 448/1/3 442/1/3 447/1/3
f 449/1/3 439/1/3 438/1/3
f 450/1/3 439/1/3 449/1/3
f 453/1/3 452/1/3 451/1/3
f 454/1/3 452/1/3 453/1/3
f 457/1/3 456/1/3 455/1/3
f 458/1/3 456/1/3 457/1/3
f 461/1/3 460/1/3 459/1/3
f 462/1/3 460/1/3 461/1/3
f 463/1/4 464/1/4 465/1/4
f 465/1/4 464/1/4 466/1/4
f 467/1/4 468/1/4 469/1/4
f 469/1/4 468/1/4 470/1/4
f 471/1/4 472/1/4 473/1/4
f 473/1/4 472/1/4 474/1/4
f 475/1/4 476/1/4 477/1/4
f 477/1/4 476/1/4 478/1/4
f 479/1/4 480/1/4 484/1/4
f 483/1/4 484/1/4 485/1/4
f 484/1/4 480/1/4 486/1/4
f 485/1/4 484/1/4 486/1/4
f 486/1/4 480/1/4 488/1/4
f 488/1/4 480/1/4 489/1/4
f 487/1/4 488/1/4 490/1/4
f 490/1/4 488/1/4 491/1/4
f 481/1/4 482/1/4 493/1/4
f 493/1/4 482/1/4 494/1/4
f 491/1/4 492/1/4 496/1/4
f 496/1/4 492/1/4 497/1/4
f 495/1/4 496/1/4 498/1/4
f 498/1/4 496/1/4 499/1/4
f 499/1/4 500/1/4 502/1/4
f 502/1/4 500/1/4 503/1/4
f 501/1/4 502/1/4 506/1/4
f 506/1/4 502/1/4 507/1/4
f 507/1/4 508/1/4 510/1/4
f 509/1/4 510/1/4 511/1/4
f 510/1/4 508/1/4 512/1/4
f 511/1/4 510/1/4 512/1/4
f 512/1/4 508/1/4 513/1/4
f 513/1/4 508/1/4 514/1/4
f 504/1/4 505/1/4 515/1/4
f 515/1/4 505/1/4 516/1/4
f 517/1/4 518/1/4 520/1/4
f 519/1/4 520/1/4 521/1/4
f 520/1/4 518/1/4 522/1/4
f 521/1/4 520/1/4 522/1/4
f 522/1/4 518/1/4 524/1/4
f 524/1/4 518/1/4 525/1/4
f 523/1/4 524/1/4 526/1/4
f 526/1/4 524/1/4 527/1/4
f 527/1/4 528/1/4 530/1/4
f 530/1/4 528/1/4 531/1/4
f 529/1/4 530/1/4 532/1/4
f 532/1/4 530/1/4 533/1/4
f 533/1/4 534/1/4 536/1/4
f 536/1/4 534/1/4 537/1/4
f 535/1/4 536/1/4 538/1/4
f 538/1/4 536/1/4 539/1/4
f 539/1/4 540/1/4 542/1/4
f 541/1/4 542/1/4 543/1/4
f 542/1/4 540/1/4 544/1/4
f 543/1/4 542/1/4 544/1/4
f 544/1/4 540/1/4 545/1/4
f 545/1/4 540/1/4 546/1/4
f 547/1/4 548/1/4 549/1/4
f 549/1/4 548/1/4 550/1/4
f 551/1/4 552/1/4 553/1/4
f 553/1/4 552/1/4 554/1/4
f 555/1/4 556/1/4 558/1/4
f 557/1/4 558/1/4 559/1/4
f 558/1/4 556/1/4 560/1/4
f 559/1/4 558/1/4 560/1/4
f 560/1/4 556/1/4 562/1/4
f 562/1/4 556/1/4 563/1/4
f 561/1/4 562/1/4 564/1/4
f 564/1/4 562/1/4 565/1/4
f 565/1/4 566/1/4 568/1/4
f 568/1/4 566/1/4 569/1/4
f 567/1/4 568/1/4 570/1/4
f 570/1/4 568/1/4 571/1/4
f 571/1/4 572/1/4 574/1/4
f 574/1/4 572/1/4 575/1/4
f 573/1/4 574/1/4 576/1/4
f 576/1/4 574/1/4 577/1/4
f 577/1/4 578/1/4 580/1/4
f 579/1/4 580/1/4 581/1/4
f 580/1/4 578/1/4 582/1/4
f 581/1/4 580/1/4 582/1/4
f 582/1/4 578/1/4 583/1/4
f 583/1/4 578/1/4 584/1/4
f 585/1/4 586/1/4 587/1/4
f 587/1/4 586/1/4 588/1/4
f 589/1/4 590/1/4 591/1/4
f 591/1/4 590/1/4 592/1/4
f 593/1/4 594/1/4 595/1/4
f 595/1/4 594/1/4 596/1/4
f 597/1/4 598/1/4 599/1/4
f 597/1/4 599/1/4 601/1/4
f 599/1/4 600/1/4 601/1/4
f 601/1/4 600/1/4 602/1/4
f 602/1/4 600/1/4 603/1/4
f 603/1/4 600/1/4 604/1/4
f 602/2/4 603/2/4 606/2/4
f 605/1/4 606/1/4 607/1/4
f 606/2/4 603/2/4 608/2/4
f 607/1/4 606/1/4 608/1/4
f 608/2/4 603/2/4 610/2/4
f 610/2/4 603/2/4 611/2/4
f 609/1/4 610/1/4 613/1/4
f 611/1/4 612/1/4 613/1/4
f 610/1/4 611/1/4 613/1/4
f 613/1/4 612/1/4 614/1/4
f 609/1/4 613/1/4 615/1/4
f 615/1/4 613/1/4 616/1/4
f 623/1/5 618/1/5 617/1/5
f 624/1/5 618/1/5 623/1/5
f 625/1/5 620/1/5 619/1/5
f 626/1/5 620/1/5 625/1/5
f 627/1/5 622/1/5 621/1/5
f 628/1/5 622/1/5 627/1/5
f 639/1/5 630/1/5 629/1/5
f 640/1/5 630/1/5 639/1/5
f 641/1/5 632/1/5 631/1/5
f 642/1/5 632/1/5 641/1/5
f 643/1/5 634/1/5 633/1/5
f 644/1/5 634/1/5 643/1/5
f 645/1/5 636/1/5 635/1/5
f 646/1/5 636/1/5 645/1/5
f 647/1/5 638/1/5 637/1/5
f 648/1/5 638/1/5 647/1/5
f 659/1/5 650/1/5 649/1/5
f 660/1/5 650/1/5 659/1/5
f 661/1/5 652/1/5 651/1/5
f 662/1/5 652/1/5 661/1/5
f 663/1/5 654/1/5 653/1/5
f 664/1/5 654/1/5 663/1/5
f 665/1/5 656/1/5 655/1/5
f 666/1/5 656/1/5 665/1/5
f 667/1/5 658/1/5 657/1/5
f 668/1/5 658/1/5 667/1/5
f 679/1/5 670/1/5 669/1/5
f 680/1/5 670/1/5 679/1/5
f 681/1/5 672/1/5 671/1/5
f 682/1/5 672/1/5 681/1/5
f 683/1/5 674/1/5 673/1/5
f 684/1/5 674/1/5 683/1/5
f 685/1/5 676/1/5 675/1/5
f 686/1/5 676/1/5 685/1/5
f 687/1/5 678/1/5 677/1/5
f 688/1/5 678/1/5 687/1/5
f 695/1/5 690/1/5 689/1/5
f 696/1/5 690/1/5 695/1/5
f 697/1/5 692/1/5 691/1/5
f 698/1/5 692/1/5 697/1/5
f 699/1/5 694/1/5 693/1/5
f 700/1/5 694/1/5 699/1/5
f 707/1/5 702/1/5 701/1/5
f 708/1/5 702/1/5 707/1/5
f 709/1/5 704/1/5 703/1/5
f 710/1/5 704/1/5 709/1/5
f 711/1/5 706/1/5 705/1/5
f 712/1/5 706/1/5 711/1/5
f 722/1/5 714/1/5 713/1/5
f 723/1/5 714/1/5 722/1/5
f 724/1/5 716/1/5 715/1/5
f 725/1/5 716/1/5 724/1/5
f 726/1/5 718/1/5 717/1/5
f 727/1/5 718/1/5 726/1/5
f 731/1/5 720/1/5 719/1/5
f 732/1/5 720/1/5 731/1/5
f 733/1/5 722/1/5 721/1/5
f 734/1/5 722/1/5 733/1/5
f 735/1/5 724/1/5 723/1/5
f 736/1/5 724/1/5 735/1/5
f 737/1/5 726/1/5 725/1/5
f 738/1/5 726/1/5 737/1/5
f 739/1/5 728/1/5 727/1/5
f 740/1/5 728/1/5 739/1/5
f 741/1/5 730/1/5 729/1/5
f 742/1/5 730/1/5 741/1/5
f 746/1/5 735/1/5 734/1/5
f 747/1/5 735/1/5 746/1/5
f 748/1/5 737/1/5 736/1/5
f 749/1/5 737/1/5 748/1/5
f 750/1/5 739/1/5 738/1/5
f 751/1/5 739/1/5 750/1/5
f 755/1/5 744/1/5 743/1/5
f 756/1/5 744/1/5 755/1/5
f 757/1/5 746/1/5 745/1/5
f 758/1/5 746/1/5 757/1/5
f 759/1/5 748/1/5 747/1/5
f 760/1/5 748/1/5 759/1/5
f 761/1/5 750/1/5 749/1/5
f 762/1/5 750/1/5 761/1/5
f 763/1/5 752/1/5 751/1/5
f 764/1/5 752/1/5 763/1/5
f 765/1/5 754/1/5 753/1/5
f 766/1/5 754/1/5 765/1/5
f 770/1/5 759/1/5 758/1/5
f 771/1/5 759/1/5 770/1/5
f 772/1/5 761/1/5 760/1/5
f 773/1/5 761/1/5 772/1/5
f 774/1/5 763/1/5 762/1/5
f 775/1/5 763/1/5 774/1/5
f 779/1/5 768/1/5 767/1/5
f 780/1/5 768/1/5 779/1/5
f 781/1/5 770/1/5 769/1/5
f 782/1/5 770/1/5 781/1/5
f 783/1/5 772/1/5 771/1/5
f 784/1/5 772/1/5 783/1/5
f 785/1/5 774/1/5 773/1/5
f 786/1/5 774/1/5 785/1/5
f 787/1/5 776/1/5 775/1/5
f 788/1/5 776/1/5 787/1/5
f 789/1/5 778/1/5 777/1/5
f 790/1/5 778/1/5 789/1/5
f 791/1/5 783/1/5 782/1/5
f 792/1/5 783/1/5 791/1/5
f 793/1/5 785/1/5 784/1/5
f 794/1/5 785/1/5 793/1/5
f 795/1/5 787/1/5 786/1/5
f 796/1/5 787/1/5 795/1/5
f 803/1/5 798/1/5 797/1/5
f 804/1/5 798/1/5 803/1/5
f 805/1/5 800/1/5 799/1/5
f 806/1/5 800/1/5 805/1/5
f 807/1/5 802/1/5 801/1/5
f 808/1/5 802/1/5 807/1/5
f 813/2/5 810/2/5 809/2/5
f 814/2/5 810/2/5 813/2/5
f 815/2/5 812/2/5 811/2/5
f 816/2/5 812/2/5 815/2/5
f 825/2/5 818/2/5 817/2/5
f 826/2/5 818/2/5 825/2/5
f 827/2/5 820/2/5 819/2/5
f 828/2/5 820/2/5 827/2/5
f 829/2/5 822/2/5 821/2/5
f 830/2/5 822/2/5 829/2/5
f 831/2/5 824/2/5 823/2/5
f 832/2/5 824/2/5 831/2/5
f 841/2/5 834/2/5 833/2/5
f 842/2/5 834/2/5 841/2/5
f 843/2/5 836/2/5 835/2/5
f 844/2/5 836/2/5 843/2/5
f 845/2/5 838/2/5 837/2/5
f 846/2/5 838/2/5 845/2/5
f 847/2/5 840/2/5 839/2/5
f 848/2/5 840/2/5 847/2/5
f 853/2/5 850/2/5 849/2/5
f 854/2/5 850/2/5 853/2/5
f 855/2/5 852/2/5 851/2/5
f 856/2/5 852/2/5 855/2/5
f 859/1/5 858/1/5 857/1/5
f 860/1/5 858/1/5 859/1/5
f 861/1/6 862/1/6 863/1/6
f 863/1/6 862/1/6 864/1/6
f 865/1/6 866/1/6 872/1/6
f 869/1/6 870/1/6 873/1/6
f 871/1/6 872/1/6 875/1/6
f 872/1/6 866/1/6 876/1/6
f 875/1/6 872/1/6 876/1/6
f 873/1/6 874/1/6 877/1/6
f 869/1/6 873/1/6 877/1/6
f 877/1/6 874/1/6 878/1/6
f 867/2/6 868/2/6 880/2/6
f 880/2/6 868/2/6 881/2/6
f 879/2/6 880/2/6 883/2/6
f 881/2/6 882/2/6 883/2/6
f 880/2/6 881/2/6 883/2/6
f 883/2/6 882/2/6 884/2/6
f 884/2/6 882/2/6 885/2/6
f 885/2/6 882/2/6 886/2/6
f 887/1/6 888/1/6 891/1/6
f 891/1/6 888/1/6 892/1/6
f 889/1/6 890/1/6 893/1/6
f 893/1/6 890/1/6 894/1/6
f 892/1/6 888/1/6 895/1/6
f 895/1/6 888/1/6 896/1/6
f 884/2/6 885/2/6 897/2/6
f 897/2/6 885/2/6 898/2/6
f 889/1/6 893/1/6 899/1/6
f 899/1/6 893/1/6 900/1/6
f 901/1/6 902/1/6 906/1/6
f 903/1/6 904/1/6 907/1/6
f 905/1/6 906/1/6 909/1/6
f 906/1/6 902/1/6 910/1/6
f 909/1/6 906/1/6 910/1/6
f 907/1/6 908/1/6 911/1/6
f 903/1/6 907/1/6 911/1/6
f 911/1/6 908/1/6 912/1/6
f 913/1/6 914/1/6 917/1/6
f 917/1/6 914/1/6 918/1/6
f 915/1/6 916/1/6 919/1/6
f 919/1/6 916/1/6 920/1/6
f 918/1/6 914/1/6 921/1/6
f 921/1/6 914/1/6 922/1/6
f 915/1/6 919/1/6 923/1/6
f 923/1/6 919/1/6 924/1/6
